<?xml version="1.0" encoding="utf-8"?>
<!-- Generator: Adobe Illustrator 21.0.0, SVG Export Plug-In . SVG Version: 6.00 Build 0)  -->
<svg version="1.1" xmlns="http://www.w3.org/2000/svg" xmlns:xlink="http://www.w3.org/1999/xlink" x="0px" y="0px"
	 viewBox="0 0 14 20" style="enable-background:new 0 0 14 20;" xml:space="preserve">
<style type="text/css">
	.st0{fill:#C9C9C9;}
	.st1{fill:#7F7F7F;}
</style>
<g id="Layer_2">
</g>
<g id="Layer_1">
	<path class="st0" d="M2.7,0C2.2,0.4,1.8,0.8,1.4,1.3L5,4.8l1.3-1.3L2.7,0z"/>
	<g>
		<path class="st0" d="M1,5.5c0-2,1-3.7,2.4-4.8L2.7,0C1.1,1.3,0,3.2,0,5.5C0,7.7,1.1,9.7,2.7,11l0.7-0.7C1.9,9.2,1,7.4,1,5.5z"/>
		<path class="st0" d="M11.3,0l-0.7,0.7C12.1,1.8,13,3.5,13,5.5s-1,3.7-2.4,4.8l0.7,0.7C12.9,9.7,14,7.7,14,5.5
			C14,3.2,12.9,1.3,11.3,0z"/>
		<path class="st0" d="M12.5,9.7L9,6.2L7.7,7.5l3.5,3.4l0.1-0.1C11.7,10.6,12.2,10.2,12.5,9.7L12.5,9.7L12.5,9.7z"/>
		<path class="st1" d="M12.6,1.3c-0.4-0.5-0.8-0.9-1.3-1.3L2.1,9l0,0L1.4,9.7c0.4,0.5,0.8,0.9,1.3,1.3l0,0L12.6,1.3z"/>
		<polygon class="st1" points="2,15.1 5.9,19 7,20 8.1,19 12,15.1 10.9,14.1 7.8,17.2 7.8,10.8 6.2,10.8 6.2,17.2 3.1,14.1 		"/>
	</g>
</g>
</svg>
