<?xml version="1.0" encoding="utf-8"?>
<!-- Generator: Adobe Illustrator 21.0.0, SVG Export Plug-In . SVG Version: 6.00 Build 0)  -->
<svg version="1.1" id="Layer_1" xmlns="http://www.w3.org/2000/svg" xmlns:xlink="http://www.w3.org/1999/xlink" x="0px" y="0px"
	 viewBox="0 0 14 20" style="enable-background:new 0 0 14 20;" xml:space="preserve">
<style type="text/css">
	.st0{fill:#7F7F7F;}
	.st1{fill:#C9C9C9;}
	.st2{fill:#FFFFFF;}
</style>
<path class="st0" d="M1,5.5c0-2,1-3.7,2.4-4.8L2.7,0C1.1,1.3,0,3.2,0,5.5c0,2.2,1.1,4.2,2.7,5.5l0.7-0.7C1.9,9.2,1,7.4,1,5.5z"/>
<path class="st0" d="M11.3,0l-0.7,0.7C12.1,1.8,13,3.5,13,5.5c0,2-1,3.7-2.4,4.8l0.7,0.7C12.9,9.7,14,7.7,14,5.5
	C14,3.2,12.9,1.3,11.3,0z"/>
<path class="st0" d="M2.7,0C2.2,0.4,1.8,0.8,1.4,1.3L5,4.8l1.3-1.3L2.7,0z"/>
<path class="st0" d="M12.5,9.7L9,6.2L7.7,7.5l3.5,3.4l0.1-0.1C11.7,10.6,12.2,10.2,12.5,9.7L12.5,9.7L12.5,9.7z"/>
<path class="st1" d="M12.6,1.3c-0.4-0.5-0.8-0.9-1.3-1.3L2.1,9l0,0L1.4,9.7c0.4,0.5,0.8,0.9,1.3,1.3L2.8,11L12.6,1.3z"/>
<polygon class="st2" points="12,15.7 8.1,11.8 7,10.8 5.9,11.8 2,15.7 3.1,16.7 6.2,13.6 6.2,20 7.8,20 7.8,13.6 10.9,16.7 "/>
</svg>
